<svg xmlns="http://www.w3.org/2000/svg" viewBox="0 0 75 75" class="size-6 fill-current"><path fill="#434783" d="M66.06,31.02c-0.31,5.82-3.13,9.63-8.5,12.2C41.27,51.03,25.13,59.15,8.15,67.53c0-8.99-0.48-17.24,0.15-25.42c0.45-5.82,5.48-8.84,10.24-11.21c8.11-4.04,16.43-7.67,24.64-11.5c5.5-2.56,10.98-5.17,17.04-8c4.26,0.28,4.54,3.04,4.73,5.96c0.3,4.55,0.71,9.1,1.09,13.64Z" /><path fill="#484976" d="M66.35,30.72c-0.66-4.25-1.08-8.76-1.38-13.34c-0.19-2.92-0.49-5.67-4.55-6.24c1.33-1.15,3.02-2.24,6.18-4.31c0,8.79,0,16.2-0.25,24.11C65.94,30.73,66.16,30.73,66.35,30.72Z" /><path fill="#585986" d="M64.69,32.16c-0.23,4.65-1.94,7.69-5.78,9.69c-7.46,3.81-15.18,7.3-22.94,10.83c-3.93,1.77-7.89,3.51-12.06,5.41c-2.91,1.34-5.83,2.65-8.73,3.99c-0.09-7.17-0.45-13.78,0.14-20.31c0.41-4.44,4.37-7.08,8.29-8.86c7.28-3.39,14.71-6.55,22.13-9.77c4.82-2.18,9.61-4.39,14.63-6.85c3.49,0.23,3.64,2.42,3.8,4.87c0.25,3.72,0.59,7.45,0.89,11.17C64.63,32.17,64.66,32.17,64.69,32.16Z" /><path fill="#505282" d="M64.94,31.88c-0.55-3.57-0.86-7.28-1.12-11.02c-0.16-2.36-0.31-4.59-3.72-5.05c0.99-0.84,2.19-1.64,4.46-3.19c0,6.98,0,12.93,0,19.26C64.55,31.89,64.74,31.88,64.94,31.88Z" /></svg>